<svg width="96" height="96" viewBox="0 0 96 96" fill="none" xmlns="http://www.w3.org/2000/svg">
<path fill-rule="evenodd" clip-rule="evenodd" d="M63.8815 53.4276C72.4601 44.849 72.4601 30.9404 63.8815 22.3618C54.8847 13.3651 40.298 13.3651 31.3013 22.3618C31.0549 22.6082 30.8144 22.8604 30.58 23.1183C22.4192 32.0951 23.0808 45.988 32.0577 54.1488L36.0925 57.8168V65.2752H59.0903V57.8168L63.1251 54.1488C63.3829 53.9144 63.6351 53.674 63.8815 53.4276ZM49.7345 25.1566C49.7345 23.7194 48.5693 22.5542 47.132 22.5542C38.6681 22.5542 31.8067 29.4156 31.8067 37.8795V38.4578L31.8096 38.5803C31.8735 39.9607 33.0129 41.0602 34.4092 41.0602C35.8464 41.0602 37.0116 39.8951 37.0116 38.4578V37.8795L37.0133 37.6894C37.1147 32.1877 41.6062 27.759 47.132 27.759C48.5693 27.759 49.7345 26.5939 49.7345 25.1566Z" fill="#091E42"/>
<path opacity="0.5" fill-rule="evenodd" clip-rule="evenodd" d="M36.0918 70.48H59.0896L59.0896 72.5725C59.0896 76.8155 55.65 80.2552 51.407 80.2552H43.7744C39.5314 80.2552 36.0918 76.8155 36.0918 72.5725V70.48Z" fill="#091E42"/>
</svg>
